<?xml version="1.0" encoding="utf-8"?>
<!-- Generator: Adobe Illustrator 16.0.0, SVG Export Plug-In . SVG Version: 6.00 Build 0)  -->
<!DOCTYPE svg PUBLIC "-//W3C//DTD SVG 1.1//EN" "http://www.w3.org/Graphics/SVG/1.1/DTD/svg11.dtd">
<svg version="1.1" id="Capa_1" xmlns="http://www.w3.org/2000/svg" xmlns:xlink="http://www.w3.org/1999/xlink" x="0px" y="0px"
	 width="40px" height="40px" viewBox="236 236 40 40" enable-background="new 236 236 40 40" xml:space="preserve">
<g>
	<path fill="#EF4955" d="M256,236c-11.046,0-20,8.954-20,20s8.954,20,20,20s20-8.954,20-20S267.046,236,256,236z M267.877,267.877
		c-1.543,1.544-3.34,2.756-5.34,3.602c-0.508,0.215-1.023,0.403-1.547,0.566v-2.998c0-1.576-0.541-2.734-1.621-3.477
		c0.677-0.064,1.299-0.156,1.865-0.273s1.165-0.287,1.797-0.508c0.631-0.221,1.197-0.484,1.699-0.791
		c0.501-0.307,0.982-0.703,1.445-1.191c0.462-0.488,0.85-1.041,1.162-1.66s0.56-1.361,0.742-2.227
		c0.182-0.865,0.273-1.82,0.273-2.861c0-2.018-0.658-3.737-1.973-5.156c0.599-1.563,0.533-3.262-0.195-5.098l-0.488-0.059
		c-0.339-0.039-0.947,0.104-1.826,0.43s-1.865,0.859-2.959,1.602c-1.55-0.43-3.158-0.645-4.824-0.645
		c-1.68,0-3.281,0.215-4.805,0.645c-0.69-0.469-1.345-0.856-1.963-1.162c-0.619-0.306-1.113-0.514-1.484-0.625
		s-0.716-0.179-1.035-0.205c-0.319-0.026-0.524-0.033-0.615-0.02c-0.091,0.013-0.156,0.026-0.195,0.039
		c-0.729,1.849-0.794,3.548-0.195,5.098c-1.315,1.419-1.973,3.138-1.973,5.156c0,1.041,0.091,1.996,0.273,2.861
		c0.182,0.865,0.43,1.607,0.742,2.227s0.7,1.172,1.162,1.66c0.462,0.488,0.944,0.885,1.445,1.191
		c0.501,0.307,1.067,0.57,1.699,0.791c0.631,0.221,1.23,0.391,1.797,0.508s1.188,0.209,1.865,0.273
		c-1.068,0.729-1.602,1.889-1.602,3.477v3.056c-0.59-0.175-1.171-0.383-1.742-0.624c-2-0.846-3.796-2.058-5.34-3.602
		c-1.543-1.543-2.755-3.34-3.601-5.34c-0.875-2.068-1.318-4.268-1.318-6.537c0-2.269,0.444-4.468,1.319-6.537
		c0.846-2,2.057-3.796,3.601-5.34c1.543-1.544,3.34-2.755,5.34-3.601c2.069-0.875,4.268-1.319,6.537-1.319
		c2.27,0,4.469,0.444,6.537,1.319c2,0.846,3.797,2.057,5.34,3.601c1.544,1.543,2.756,3.34,3.602,5.34
		c0.875,2.069,1.318,4.268,1.318,6.537c0,2.27-0.443,4.469-1.318,6.537C270.633,264.537,269.421,266.334,267.877,267.877z"/>
</g>
</svg>
