<?xml version="1.0" encoding="utf-8"?>
<!-- Generator: Adobe Illustrator 16.0.0, SVG Export Plug-In . SVG Version: 6.00 Build 0)  -->
<!DOCTYPE svg PUBLIC "-//W3C//DTD SVG 1.1//EN" "http://www.w3.org/Graphics/SVG/1.1/DTD/svg11.dtd">
<svg version="1.1" id="Capa_1" xmlns="http://www.w3.org/2000/svg" xmlns:xlink="http://www.w3.org/1999/xlink" x="0px" y="0px"
	 width="40px" height="40px" viewBox="0 0 40 40" enable-background="new 0 0 40 40" xml:space="preserve">
<g>
	<path fill="#EF4955" d="M20,0C8.954,0,0,8.954,0,20s8.954,20,20,20s20-8.954,20-20S31.046,0,20,0z M20,36.875
		C10.68,36.875,3.125,29.32,3.125,20S10.68,3.125,20,3.125S36.875,10.68,36.875,20S29.32,36.875,20,36.875z"/>
</g>
<path fill="#EF4955" d="M15.234,18.694h8.363V20c0,4.612-3.752,8.364-8.363,8.364c-4.611,0-8.363-3.752-8.363-8.364
	c0-4.611,3.751-8.362,8.363-8.362c1.86,0,3.623,0.599,5.097,1.732l-1.593,2.071c-1.013-0.779-2.225-1.19-3.504-1.19
	c-3.171,0-5.751,2.58-5.751,5.75s2.58,5.752,5.751,5.752c2.722,0,5.008-1.902,5.6-4.447h-5.6V18.694z M30.853,18.694h2.276v2.611
	h-2.276v2.277h-2.613v-2.277h-2.275v-2.611h2.275v-2.277h2.613V18.694z"/>
</svg>
