<?xml version="1.0" encoding="utf-8"?>
<!-- Generator: Adobe Illustrator 16.0.0, SVG Export Plug-In . SVG Version: 6.00 Build 0)  -->
<!DOCTYPE svg PUBLIC "-//W3C//DTD SVG 1.1//EN" "http://www.w3.org/Graphics/SVG/1.1/DTD/svg11.dtd">
<svg version="1.1" id="Capa_1" xmlns="http://www.w3.org/2000/svg" xmlns:xlink="http://www.w3.org/1999/xlink" x="0px" y="0px" fill="#EF4955"
	 width="40px" height="40px" viewBox="236 236 40 40" enable-background="new 236 236 40 40" xml:space="preserve">
<g>
	<path d="M256,236c-11.046,0-20,8.954-20,20c0,11.046,8.954,20,20,20c11.046,0,20-8.954,20-20C276,244.954,267.046,236,256,236z
		 M256,272.875c-9.32,0-16.875-7.555-16.875-16.875s7.555-16.875,16.875-16.875s16.875,7.555,16.875,16.875
		S265.32,272.875,256,272.875z"/>
</g>
<g>
	<path id="LinkedIn" d="M266.748,257.476v7.33h-4.25v-6.839c0-1.718-0.615-2.891-2.154-2.891c-1.172,0-1.871,0.791-2.18,1.554
		c-0.111,0.273-0.141,0.654-0.141,1.037v7.139h-4.252c0,0,0.058-11.583,0-12.783h4.252v1.812c-0.008,0.014-0.02,0.028-0.029,0.042
		h0.029v-0.042c0.564-0.869,1.572-2.112,3.83-2.112C264.65,251.722,266.748,253.55,266.748,257.476z M249.325,245.86
		c-1.454,0-2.405,0.953-2.405,2.208c0,1.227,0.924,2.21,2.349,2.21h0.028c1.483,0,2.405-0.983,2.405-2.21
		C251.674,246.813,250.78,245.86,249.325,245.86z M247.172,264.806h4.25v-12.783h-4.25V264.806z"/>
</g>
</svg>
