<?xml version="1.0" encoding="utf-8"?>
<!-- Generator: Adobe Illustrator 16.0.0, SVG Export Plug-In . SVG Version: 6.00 Build 0)  -->
<!DOCTYPE svg PUBLIC "-//W3C//DTD SVG 1.1//EN" "http://www.w3.org/Graphics/SVG/1.1/DTD/svg11.dtd">
<svg version="1.1" id="Capa_1" xmlns="http://www.w3.org/2000/svg" xmlns:xlink="http://www.w3.org/1999/xlink" x="0px" y="0px"
	 viewBox="292.005 292.005 28 28" enable-background="new 292.005 292.005 28 28" xml:space="preserve">
<g>
	<g id="_x34__4_">
		<g>
			<path d="M292.27,319.745c0.354,0.348,0.928,0.348,1.283,0l7.256-7.145c2.024,1.617,4.603,2.59,7.415,2.59
				c6.507,0,11.781-5.189,11.781-11.594c0-6.403-5.274-11.592-11.781-11.592c-6.505,0-11.78,5.189-11.781,11.592
				c0,2.994,1.162,5.713,3.056,7.771l-7.229,7.113C291.917,318.829,291.917,319.396,292.27,319.745z M298.255,303.597
				c0-5.417,4.463-9.808,9.968-9.808c5.507,0,9.969,4.39,9.969,9.808c0,5.418-4.462,9.811-9.969,9.811
				C302.718,313.407,298.255,309.015,298.255,303.597z"/>
		</g>
	</g>
</g>
</svg>
