<?xml version="1.0" encoding="utf-8"?>
<!-- Generator: Adobe Illustrator 16.0.0, SVG Export Plug-In . SVG Version: 6.00 Build 0)  -->
<!DOCTYPE svg PUBLIC "-//W3C//DTD SVG 1.1//EN" "http://www.w3.org/Graphics/SVG/1.1/DTD/svg11.dtd">
<svg version="1.1" id="Capa_1" xmlns="http://www.w3.org/2000/svg" xmlns:xlink="http://www.w3.org/1999/xlink" x="0px" y="0px" fill="#EF4955"
	 viewBox="236 236 40 40" enable-background="new 236 236 40 40" xml:space="preserve">
<g>
	<path d="M256,236c-11.046,0-20,8.954-20,20c0,11.047,8.954,20,20,20c11.047,0,20-8.953,20-20C276,244.954,267.047,236,256,236z
		 M256,272.875c-9.32,0-16.875-7.555-16.875-16.875s7.555-16.875,16.875-16.875s16.875,7.555,16.875,16.875
		S265.32,272.875,256,272.875z"/>
	<path d="M266,249.354c-0.337,0.2-1.348,0.599-2.29,0.699c0.604-0.351,1.499-1.5,1.72-2.413c-0.58,0.399-1.915,0.981-2.574,0.981
		c0,0,0,0.001,0.002,0.003c-0.753-0.847-1.811-1.374-2.984-1.374c-2.277,0-4.125,1.989-4.125,4.443c0,0.341,0.038,0.671,0.106,0.99
		h-0.001c-3.091-0.086-6.704-1.754-8.74-4.609c-1.25,2.332-0.168,4.925,1.251,5.87c-0.485,0.041-1.381-0.06-1.802-0.5
		c-0.029,1.546,0.663,3.597,3.183,4.341c-0.486,0.281-1.343,0.201-1.718,0.139c0.132,1.309,1.831,3.018,3.688,3.018
		c-0.662,0.822-2.919,2.32-5.714,1.844c1.898,1.244,4.111,1.965,6.454,1.965c6.657,0,11.827-5.81,11.548-12.976
		c0-0.008-0.003-0.017-0.003-0.024c0-0.02,0.003-0.039,0.003-0.056c0-0.022-0.003-0.044-0.003-0.067
		C264.604,251.182,265.418,250.393,266,249.354z"/>
</g>
</svg>
