<?xml version="1.0" encoding="utf-8"?>
<!-- Generator: Adobe Illustrator 16.0.0, SVG Export Plug-In . SVG Version: 6.00 Build 0)  -->
<!DOCTYPE svg PUBLIC "-//W3C//DTD SVG 1.1//EN" "http://www.w3.org/Graphics/SVG/1.1/DTD/svg11.dtd">
<svg version="1.1" id="Capa_1" xmlns="http://www.w3.org/2000/svg" xmlns:xlink="http://www.w3.org/1999/xlink" x="0px" y="0px"
	 width="16px" height="16px" viewBox="0 0 16 16" enable-background="new 0 0 16 16" xml:space="preserve">
<g>
	<path fill="#FFF" d="M15.603,11.799C15.87,12.067,16,12.381,16,12.748c0,0.377-0.132,0.7-0.397,0.964l-1.89,1.891
		C13.446,15.868,13.125,16,12.748,16c-0.366,0-0.681-0.134-0.945-0.397L8,11.799l-3.8,3.804C3.934,15.868,3.62,16,3.256,16
		c-0.378,0-0.702-0.134-0.967-0.397l-1.89-1.891C0.134,13.446,0,13.125,0,12.748c0-0.366,0.134-0.681,0.399-0.949L4.2,8L0.399,4.199
		C0.134,3.934,0,3.62,0,3.253c0-0.378,0.134-0.699,0.399-0.965l1.89-1.89C2.555,0.132,2.878,0,3.256,0
		C3.62,0,3.935,0.132,4.201,0.398L8,4.198l3.803-3.8C12.067,0.132,12.382,0,12.748,0c0.377,0,0.7,0.132,0.965,0.398l1.89,1.89
		C15.87,2.554,16,2.875,16,3.253c0,0.367-0.132,0.68-0.397,0.946L11.803,8L15.603,11.799z"/>
</g>
</svg>
