<?xml version="1.0" encoding="utf-8"?>
<!-- Generator: Adobe Illustrator 16.0.0, SVG Export Plug-In . SVG Version: 6.00 Build 0)  -->
<!DOCTYPE svg PUBLIC "-//W3C//DTD SVG 1.1//EN" "http://www.w3.org/Graphics/SVG/1.1/DTD/svg11.dtd">
<svg version="1.1" id="Capa_1" xmlns="http://www.w3.org/2000/svg" xmlns:xlink="http://www.w3.org/1999/xlink" x="0px" y="0px"
	 width="40px" height="40px" viewBox="236 236 40 40" enable-background="new 236 236 40 40" xml:space="preserve">
<g>
	<path fill="#EF4955" d="M256,236c-11.046,0-20,8.954-20,20c0,11.046,8.954,20,20,20c11.046,0,20-8.954,20-20
		C276,244.954,267.046,236,256,236z M256,272.875c-9.32,0-16.875-7.555-16.875-16.875s7.555-16.875,16.875-16.875
		s16.875,7.555,16.875,16.875S265.32,272.875,256,272.875z"/>
	<path fill="#EF4955" d="M260.746,252.938h-3.479v-2.539c0-0.779,0.805-0.959,1.182-0.959c0.373,0,2.247,0,2.247,0v-3.426
		L258.12,246c-3.514,0-4.316,2.555-4.316,4.193v2.745h-2.55v3.53h2.55c0,4.532,0,9.531,0,9.531h3.463c0,0,0-5.05,0-9.531h2.941
		L260.746,252.938z"/>
</g>
</svg>
